<?xml version="1.0" encoding="UTF-8"?>
<svg version="1.1" xmlns="http://www.w3.org/2000/svg" width="500" height="500">
<path d="M0 0 C165 0 330 0 500 0 C500 165 500 330 500 500 C335 500 170 500 0 500 C0 335 0 170 0 0 Z " fill="#FDFDFD" transform="translate(0,0)"/>
<path d="M0 0 C0.99 0.99 0.99 0.99 2 2 C1.86842036 8.21520299 -0.5093194 11.91154851 -3.9375 16.8125 C-7.83364412 22.60266453 -11.47975824 28.43011687 -14.8125 34.5625 C-18.65622385 41.61164256 -22.62786159 48.57281692 -26.6875 55.5 C-37.33255519 73.68053073 -47.83530205 91.94186949 -58.27822876 110.23907471 C-63.21404165 118.88660589 -68.17842896 127.51680248 -73.17578125 136.12890625 C-76.54412296 141.93417839 -79.89685659 147.74844016 -83.25 153.5625 C-83.88429932 154.66223145 -84.51859863 155.76196289 -85.17211914 156.89501953 C-86.46830297 159.14239157 -87.76444525 161.38978758 -89.06054688 163.63720703 C-91.5850968 168.01449185 -94.11025722 172.39142428 -96.63549805 176.76831055 C-97.87660253 178.91948249 -99.11765089 181.07068682 -100.35864258 183.22192383 C-103.23576713 188.20931656 -106.11322826 193.19651385 -108.99211121 198.18289185 C-110.64075805 201.0384884 -112.2891028 203.89425933 -113.9375 206.75 C-114.57212158 207.84908691 -115.20674316 208.94817383 -115.8605957 210.08056641 C-118.98882137 215.50138729 -122.10157939 220.93000785 -125.1875 226.375 C-126.45431946 228.58577781 -127.72478116 230.79408895 -129 233 C-129.42812988 233.74378906 -129.85625977 234.48757813 -130.29736328 235.25390625 C-156.49594915 280.5606762 -156.49594915 280.5606762 -171.984375 285.65234375 C-173.875 286 -173.875 286 -177 286 C-177.66 285.34 -178.32 284.68 -179 284 C-179 275.6998415 -175.72325415 269.2635474 -172 262 C-171.47140381 260.95924316 -171.47140381 260.95924316 -170.93212891 259.89746094 C-165.34191138 248.93899395 -159.3387635 238.23607146 -153.19921875 227.578125 C-149.77157268 221.62087825 -146.41384937 215.62541432 -143.0625 209.625 C-138.03338175 200.62472666 -132.9769801 191.64058197 -127.89697266 182.66894531 C-123.88788709 175.58351509 -119.90904949 168.48152465 -115.9375 161.375 C-107.96977135 147.12900035 -99.93237531 132.92613423 -91.625 118.875 C-87.32031894 111.5910574 -83.22225717 104.22228862 -79.28125 96.734375 C-74.98886539 88.59515867 -70.50644216 80.58428982 -65.91772461 72.60839844 C-61.02978114 64.09562827 -56.26781515 55.51499163 -51.53295898 46.91625977 C-48.62354466 41.64924916 -45.6823748 36.41753509 -42.56640625 31.26953125 C-42.04570557 30.40344238 -41.52500488 29.53735352 -40.98852539 28.64501953 C-40.02704442 27.05763764 -39.05184551 25.4784477 -38.06030273 23.90966797 C-36.01868475 20.5310026 -34.99524416 18.6785004 -35.0234375 14.65625 C-36.05744174 11.84375847 -36.64174678 10.89933222 -39.125 9.3125 C-39.74890625 8.90773438 -40.3728125 8.50296875 -41.015625 8.0859375 C-42.93470696 7.03573123 -44.83503971 6.22145168 -46.875 5.4375 C-50 4 -50 4 -50.9375 1.8125 C-50.9684375 0.9153125 -50.9684375 0.9153125 -51 0 C-36.88978796 -10.3245454 -15.3897093 -6.30779931 0 0 Z " fill="#040404" transform="translate(330,81)"/>
<path d="M0 0 C2.125 1.1875 2.125 1.1875 4.125 4.1875 C4.1015625 6.44921875 4.1015625 6.44921875 3.75 8.875 C3.63914062 9.68324219 3.52828125 10.49148438 3.4140625 11.32421875 C3.31867188 11.93910156 3.22328125 12.55398438 3.125 13.1875 C4.176875 13.3421875 4.176875 13.3421875 5.25 13.5 C12.72930315 15.28852901 17.05981535 19.28507832 21.4375 25.4375 C24.46926501 31.14362683 23.61796901 36.93367087 22.0625 43 C15.53621294 62.19496195 -0.95175681 77.12835528 -18.74853516 86.13574219 C-22.71572914 88.02428858 -26.76055789 89.65157723 -30.875 91.1875 C-32.17630859 91.67863281 -32.17630859 91.67863281 -33.50390625 92.1796875 C-41.01993947 94.8503592 -48.39153215 95.36870852 -56.3125 95.375 C-57.52389648 95.39336914 -57.52389648 95.39336914 -58.75976562 95.41210938 C-67.57300229 95.43341454 -75.75964577 93.66185925 -82.875 88.1875 C-87.86368402 82.24908743 -90.32386699 76.89454889 -90.2109375 69.125 C-88.5093058 54.24561581 -78.02586753 40.55588684 -66.875 31.1875 C-66.215 31.1875 -65.555 31.1875 -64.875 31.1875 C-64.875 30.5275 -64.875 29.8675 -64.875 29.1875 C-60.72441705 26.24045599 -56.28372785 23.72838357 -51.875 21.1875 C-51.04097656 20.70539063 -50.20695312 20.22328125 -49.34765625 19.7265625 C-40.49788034 14.97642637 -30.40938277 11.95922326 -20.5625 10.125 C-16.90890456 9.50249112 -16.90890456 9.50249112 -14.875 7.375 C-13.78638428 4.99365312 -13.35996803 2.75090244 -12.875 0.1875 C-8.89385272 -1.80307364 -4.16169146 -1.17613019 0 0 Z " fill="#030303" transform="translate(316.875,341.8125)"/>
<path d="M0 0 C2.30391062 1.47974747 4.41244112 3.05634139 6.52734375 4.79296875 C7.39359375 5.45296875 8.25984375 6.11296875 9.15234375 6.79296875 C10.52734375 8.79296875 10.52734375 8.79296875 10.58984375 11.79296875 C8.94797548 16.42883209 5.848124 17.98248996 1.77734375 20.48046875 C-1.97938104 23.15352293 -4.98513476 26.22435227 -8.203125 29.51171875 C-11.47180306 32.79727466 -14.9486665 35.78669369 -18.47265625 38.79296875 C-19.51359482 39.69725637 -20.55390808 40.60226406 -21.59375 41.5078125 C-29.15817491 48.07375052 -36.88045607 54.38367673 -44.80957031 60.50341797 C-46.35930317 61.70507518 -47.89695848 62.92226379 -49.43359375 64.140625 C-70.19804204 80.46333435 -92.56082786 94.67380394 -115.16015625 108.29296875 C-115.93705811 108.7612207 -116.71395996 109.22947266 -117.5144043 109.71191406 C-127.9520934 115.9417039 -138.72768493 121.54583193 -149.52270508 127.12426758 C-150.93988279 127.85770358 -152.35591486 128.59335777 -153.77075195 129.33129883 C-161.47235457 133.3480097 -169.21218223 137.23459701 -177.1484375 140.76953125 C-177.79628708 141.06254623 -178.44413666 141.35556122 -179.11161804 141.65745544 C-184.1858545 143.87006169 -188.94827379 144.88592711 -194.47265625 144.79296875 C-194.80265625 143.47296875 -195.13265625 142.15296875 -195.47265625 140.79296875 C-189.59021154 136.45568232 -183.55698378 132.62243711 -177.18847656 129.0390625 C-154.33457497 116.14526065 -132.54995175 101.4009428 -111.47265625 85.79296875 C-110.90659668 85.37466797 -110.34053711 84.95636719 -109.75732422 84.52539062 C-106.31001448 81.97276237 -102.88668363 79.38988367 -99.47265625 76.79296875 C-98.46332031 76.02855469 -97.45398438 75.26414062 -96.4140625 74.4765625 C-79.24984004 61.41936087 -62.56948955 47.6978219 -46.8984375 32.875 C-44.47265625 30.79296875 -44.47265625 30.79296875 -41.47265625 29.79296875 C-41.47265625 29.13296875 -41.47265625 28.47296875 -41.47265625 27.79296875 C-39.9765625 26.35546875 -39.9765625 26.35546875 -38.03515625 24.79296875 C-35.32077387 22.64771831 -35.32077387 22.64771831 -33.47265625 19.79296875 C-58.50248713 20.33629374 -58.50248713 20.33629374 -82.44921875 26.8671875 C-85.70994213 27.86562605 -87.26834245 27.83533589 -90.47265625 26.79296875 C-97.00061129 23.14945896 -105.93715382 17.02277283 -108.47265625 9.79296875 C-107.91710069 3.23741319 -107.91710069 3.23741319 -106.47265625 1.79296875 C-104.95458275 1.69235569 -103.43155316 1.66332326 -101.91015625 1.66796875 C-100.67072266 1.66410156 -100.67072266 1.66410156 -99.40625 1.66015625 C-96.47265625 1.79296875 -96.47265625 1.79296875 -92.83666992 2.29296875 C-88.44934624 2.85173506 -84.13303989 2.93716865 -79.71484375 2.92578125 C-78.48852234 2.9279641 -78.48852234 2.9279641 -77.23742676 2.93019104 C-74.60745501 2.93241893 -71.97761487 2.92620028 -69.34765625 2.91796875 C-68.45137512 2.91608551 -67.55509399 2.91420227 -66.63165283 2.91226196 C-40.84789487 3.16384817 -40.84789487 3.16384817 -15.4453125 -0.55078125 C-9.98215789 -1.75683904 -5.15749984 -2.5176421 0 0 Z " fill="#040404" transform="translate(254.47265625,119.20703125)"/>
<path d="M0 0 C9.453125 4.453125 9.453125 4.453125 13 8 C13.6875 10.6875 13.6875 10.6875 13 14 C10.26550675 16.69128456 7.119052 18.77907878 4 21 C2.67011472 22.10439413 1.356708 23.22900396 0.0625 24.375 C-0.91396484 25.23931641 -0.91396484 25.23931641 -1.91015625 26.12109375 C-3.40184925 27.46222334 -4.88825964 28.80923819 -6.37109375 30.16015625 C-12.07647355 35.34929264 -17.92106678 40.25546676 -24 45 C-25.12650744 45.89557509 -26.25279808 46.79142292 -27.37890625 47.6875 C-28.5438404 48.60471362 -29.70920069 49.52138627 -30.875 50.4375 C-31.42260986 50.87505615 -31.97021973 51.3126123 -32.53442383 51.76342773 C-35.2725656 53.89590927 -37.50931941 55.53626224 -41 56 C-41 56.66 -41 57.32 -41 58 C-42.50268555 59.21411133 -42.50268555 59.21411133 -44.63671875 60.58203125 C-45.43126465 61.09548096 -46.22581055 61.60893066 -47.04443359 62.13793945 C-47.91664551 62.69054443 -48.78885742 63.24314941 -49.6875 63.8125 C-50.58291504 64.38637451 -51.47833008 64.96024902 -52.40087891 65.55151367 C-55.26079596 67.3780885 -58.12871787 69.19134884 -61 71 C-61.9182959 71.57878906 -62.8365918 72.15757812 -63.78271484 72.75390625 C-78.73796428 82.15144356 -93.78273094 91.13774051 -109.67578125 98.86669922 C-111.30320936 99.66024137 -112.92800049 100.45920392 -114.55078125 101.26220703 C-128.57301021 108.19976062 -142.78614809 114.37705801 -157.38818359 119.99487305 C-159.03044638 120.62687865 -160.66936907 121.26770506 -162.30322266 121.92114258 C-166.06626811 123.4025485 -169.46221735 124.40709843 -173.5 124.6875 C-174.3559375 124.75324219 -175.211875 124.81898438 -176.09375 124.88671875 C-177.03734375 124.94279297 -177.03734375 124.94279297 -178 125 C-178 121 -178 121 -176.171875 119.11328125 C-171.70126677 116.13471099 -167.00184565 113.68528939 -162.25 111.1875 C-143.1486575 100.95933772 -124.83103654 89.70045066 -106.8125 77.6875 C-106.12511749 77.22940948 -105.43773499 76.77131897 -104.72952271 76.29934692 C-92.59814524 68.19763871 -80.64946888 59.84640898 -69 51.0625 C-68.33758301 50.56363281 -67.67516602 50.06476563 -66.99267578 49.55078125 C-55.32675841 40.73665623 -44.02728086 31.60278409 -33 22 C-54.84954321 20.68532007 -54.84954321 20.68532007 -75.75 25.625 C-80.32960024 27.56252318 -84.12964309 28.26643753 -89 27 C-94.47801526 23.2982135 -99.22531112 18.42398988 -103 13 C-103.4609375 10.61328125 -103.4609375 10.61328125 -103.375 8.3125 C-103.36210937 7.54550781 -103.34921875 6.77851563 -103.3359375 5.98828125 C-103 4 -103 4 -101 2 C-96.86002433 1.8028583 -93.92296433 1.69234522 -90 3 C-88.09189913 3.10359934 -86.1804011 3.14855642 -84.26953125 3.16113281 C-83.08979736 3.17074036 -81.91006348 3.1803479 -80.69458008 3.19024658 C-79.41349365 3.19449646 -78.13240723 3.19874634 -76.8125 3.203125 C-75.82617081 3.20736607 -75.82617081 3.20736607 -74.81991577 3.21169281 C-71.32264811 3.2267035 -67.82542169 3.23591408 -64.328125 3.24023438 C-61.47122132 3.24457862 -58.61462654 3.25830702 -55.7578125 3.28125 C-39.42188295 3.41001795 -14.50430151 -4.25391175 0 0 Z " fill="#050505" transform="translate(347,248)"/>
<path d="M0 0 C-0.46549878 5.32663609 -1.60716502 8.54638057 -4.625 12.9375 C-5.44751623 14.1625858 -6.26764275 15.38927795 -7.0859375 16.6171875 C-7.77574707 17.64537598 -7.77574707 17.64537598 -8.47949219 18.69433594 C-11.49105415 23.26100118 -14.35953723 27.91864236 -17.25 32.5625 C-18.2080957 34.09765259 -18.2080957 34.09765259 -19.18554688 35.66381836 C-24.54349144 44.2522488 -29.87434834 52.8573725 -35.1953125 61.46875 C-37.78290144 65.65460816 -40.38718468 69.82984896 -43 74 C-42.07960938 73.566875 -41.15921875 73.13375 -40.2109375 72.6875 C-28.53518261 67.44903706 -18.21583604 66.05109615 -5.79296875 70.24609375 C-4 71 -4 71 -3 72 C-2.20319039 78.60213677 -2.20319039 78.60213677 -4.12890625 81.98046875 C-8.11097412 86.8566824 -12.74652533 89.87200824 -19 91 C-21.55183137 90.96433887 -24.07775752 90.87706627 -26.625 90.75390625 C-43.63671979 89.33510074 -43.63671979 89.33510074 -58.59375 95.203125 C-61.2309425 98.48314076 -63.11197517 102.10890137 -64.90478516 105.90380859 C-66.66253899 109.2680695 -69.08212424 111.89345806 -71.6875 114.625 C-73.02748047 116.04232422 -73.02748047 116.04232422 -74.39453125 117.48828125 C-77.8539389 120.82321246 -81.45753578 124.2601505 -86 126 C-90.50244698 125.49755302 -90.50244698 125.49755302 -92 124 C-94.37971395 106.15214537 -74.96327751 81.70905536 -66.36254883 67.1394043 C-61.4420501 58.80153569 -56.69387726 50.3762005 -52.00219727 41.90771484 C-49.36542508 37.1629561 -46.69962833 32.45298587 -43.86328125 27.82421875 C-43.38729492 27.04361084 -42.91130859 26.26300293 -42.42089844 25.45874023 C-41.54518314 24.03483723 -40.6573435 22.61828567 -39.75488281 21.21118164 C-38.03185477 18.40744424 -36.98254113 16.54274313 -37.08984375 13.20703125 C-39.51916773 7.31618125 -45.73366869 4.99897991 -51.2421875 2.69921875 C-51.82226562 2.46847656 -52.40234375 2.23773438 -53 2 C-52.75390625 -0.35546875 -52.75390625 -0.35546875 -52 -3 C-39.26637813 -13.07717468 -13.11501718 -6.21071727 0 0 Z " fill="#040404" transform="translate(422,230)"/>
<path d="M0 0 C3.08672723 1.35596172 3.56060498 3.31938667 4.88891602 6.36450195 C5.37682617 7.47567383 5.86473633 8.5868457 6.36743164 9.73168945 C6.86307617 10.9021582 7.3587207 12.07262695 7.86938477 13.27856445 C8.64185547 15.02266602 8.64185547 15.02266602 9.42993164 16.80200195 C13.19079562 25.50183189 13.19079562 25.50183189 12.05688477 28.90356445 C9.05688477 30.90356445 9.05688477 30.90356445 6.05688477 30.90356445 C4.07688477 26.94356445 2.09688477 22.98356445 0.05688477 18.90356445 C0.55188477 20.60512695 0.55188477 20.60512695 1.05688477 22.34106445 C2.21535544 26.90152294 2.25181768 31.22517451 2.05688477 35.90356445 C0.40688477 36.56356445 -1.24311523 37.22356445 -2.94311523 37.90356445 C-5.91311523 34.60356445 -8.88311523 31.30356445 -11.94311523 27.90356445 C-11.07686523 29.80106445 -10.21061523 31.69856445 -9.31811523 33.65356445 C-6.76118065 39.25446879 -6.76118065 39.25446879 -7.54858398 42.0637207 C-9.1570326 44.18579157 -10.85954576 45.85603088 -12.88061523 47.59106445 C-13.57026367 48.19305664 -14.25991211 48.79504883 -14.97045898 49.4152832 C-16.94311523 50.90356445 -16.94311523 50.90356445 -19.94311523 51.90356445 C-20.56186523 51.65606445 -21.18061523 51.40856445 -21.81811523 51.15356445 C-24.22682039 50.62265862 -24.22682039 50.62265862 -26.69311523 52.96606445 C-29.262331 55.6658203 -29.262331 55.6658203 -28.80639648 58.7590332 C-28.98868771 62.95173138 -30.48072106 64.2039061 -33.38061523 67.15356445 C-36.54281382 70.25746422 -36.54281382 70.25746422 -38.94311523 73.90356445 C-39.60311523 73.90356445 -40.26311523 73.90356445 -40.94311523 73.90356445 C-41.20866211 74.4862207 -41.47420898 75.06887695 -41.74780273 75.66918945 C-42.9761452 77.96530674 -44.34626462 79.70712463 -46.06811523 81.65356445 C-46.60694336 82.2671582 -47.14577148 82.88075195 -47.70092773 83.51293945 C-48.11084961 83.9718457 -48.52077148 84.43075195 -48.94311523 84.90356445 C-52.43625993 82.26859717 -55.15693731 79.62082531 -57.81811523 76.15356445 C-60.94649489 72.11348558 -64.22946021 68.35524468 -67.79077148 64.69262695 C-68.94311523 62.90356445 -68.94311523 62.90356445 -68.86108398 60.95043945 C-67.69002829 58.33923442 -66.14505522 56.61992873 -64.19311523 54.52856445 C-61.00450345 51.05894192 -57.93175371 47.5459676 -54.94311523 43.90356445 C-53.29311523 45.55356445 -51.64311523 47.20356445 -49.94311523 48.90356445 C-50.8910319 50.32543945 -51.83894857 51.74731445 -52.78686523 53.16918945 C-53.16842773 53.7415332 -53.54999023 54.31387695 -53.94311523 54.90356445 C-55.27644857 56.90356445 -56.6097819 58.90356445 -57.94311523 60.90356445 C-56.95311523 61.23356445 -55.96311523 61.56356445 -54.94311523 61.90356445 C-53.29311523 59.59356445 -51.64311523 57.28356445 -49.94311523 54.90356445 C-48.00561523 55.65356445 -48.00561523 55.65356445 -45.94311523 56.90356445 C-45.12670898 58.7590332 -45.12670898 58.7590332 -44.94311523 60.90356445 C-46.19311523 62.7199707 -46.19311523 62.7199707 -47.94311523 64.46606445 C-49.69380078 66.13582022 -49.69380078 66.13582022 -50.94311523 67.90356445 C-50.61311523 68.89356445 -50.28311523 69.88356445 -49.94311523 70.90356445 C-46.72762304 69.52549637 -44.97091523 68.01746706 -42.81811523 65.27856445 C-41.31030273 63.36450195 -41.31030273 63.36450195 -39.94311523 61.90356445 C-39.28311523 61.90356445 -38.62311523 61.90356445 -37.94311523 61.90356445 C-37.94311523 58.84878154 -38.47171276 56.65132528 -39.29077148 53.7199707 C-39.70359375 52.205 -39.70359375 52.205 -40.12475586 50.65942383 C-40.71127172 48.53314126 -41.30240895 46.40812798 -41.89819336 44.28442383 C-42.17211914 43.2731543 -42.44604492 42.26188477 -42.72827148 41.2199707 C-43.11317749 39.83467163 -43.11317749 39.83467163 -43.50585938 38.42138672 C-43.96181953 35.79586069 -43.88257965 34.37386001 -42.94311523 31.90356445 C-41.13061523 29.59106445 -41.13061523 29.59106445 -38.94311523 27.90356445 C-35.71840798 28.29178888 -33.69772105 29.60246984 -31.15795898 31.5559082 C-30.11478516 32.34964844 -30.11478516 32.34964844 -29.05053711 33.15942383 C-28.33446289 33.71436523 -27.61838867 34.26930664 -26.88061523 34.84106445 C-25.45266405 35.9340799 -24.02429481 37.02654945 -22.59545898 38.1184082 C-21.96631592 38.6043042 -21.33717285 39.0902002 -20.68896484 39.59082031 C-19.147005 40.75025509 -17.54833178 41.83342009 -15.94311523 42.90356445 C-17.92208504 36.26819509 -20.58861657 30.17228508 -23.60546875 23.95800781 C-25.94311523 19.10183671 -25.94311523 19.10183671 -25.94311523 16.90356445 C-23.97436523 15.39575195 -23.97436523 15.39575195 -21.44311523 13.77856445 C-20.60780273 13.23973633 -19.77249023 12.7009082 -18.91186523 12.14575195 C-18.26217773 11.73583008 -17.61249023 11.3259082 -16.94311523 10.90356445 C-13.29489728 14.44754761 -10.25232425 17.93251363 -6.94311523 21.90356445 C-7.60311523 16.29356445 -8.26311523 10.68356445 -8.94311523 4.90356445 C-2.56265516 -0.12718291 -2.56265516 -0.12718291 0 0 Z " fill="#0B0B0B" transform="translate(122.943115234375,36.096435546875)"/>
<path d="M0 0 C2.97 0 5.94 0 9 0 C9.39832031 1.01320312 9.39832031 1.01320312 9.8046875 2.046875 C10.15789062 2.93890625 10.51109375 3.8309375 10.875 4.75 C11.22304688 5.63171875 11.57109375 6.5134375 11.9296875 7.421875 C12.85749079 9.65672963 13.91783604 11.83567209 15 14 C15.99 9.71 16.98 5.42 18 1 C20.97 1 23.94 1 27 1 C25.25143512 11.05424806 23.1301773 21.02125685 21 31 C17.7 31 14.4 31 11 31 C10.32844651 28.73050898 9.6626037 26.4596039 9 24.1875 C8.62875 22.92292969 8.2575 21.65835937 7.875 20.35546875 C7 17 7 17 7 14 C6.34 14 5.68 14 5 14 C4.92652344 14.85271484 4.92652344 14.85271484 4.8515625 15.72265625 C4.77679688 16.49480469 4.70203125 17.26695313 4.625 18.0625 C4.55539063 18.81660156 4.48578125 19.57070313 4.4140625 20.34765625 C3.90250577 23.62451493 2.91112591 26.81105932 2 30 C-6.415 30.495 -6.415 30.495 -15 31 C-15.495 29.02 -15.495 29.02 -16 27 C-19.63 27.33 -23.26 27.66 -27 28 C-27.495 30.475 -27.495 30.475 -28 33 C-32.62 33.66 -37.24 34.32 -42 35 C-42 34.34 -42 33.68 -42 33 C-42.66 33 -43.32 33 -44 33 C-44.33 33.99 -44.66 34.98 -45 36 C-49.2552036 38.8368024 -53.00607395 38.63123225 -58 38 C-62.79118656 35.45149651 -64.41173983 32.09915108 -66 27 C-66.99605718 20.91420007 -65.99784974 16.73484881 -62.40625 11.7265625 C-58.9858286 7.52704511 -56.41493169 5.83171174 -51.0625 5.0625 C-46.59314274 4.77608813 -43.74977768 5.37515563 -40 8 C-38 11 -38 11 -38 14 C-39.47831221 14.19412181 -40.95769316 14.38012131 -42.4375 14.5625 C-43.26121094 14.66691406 -44.08492187 14.77132813 -44.93359375 14.87890625 C-45.95646484 14.93884766 -45.95646484 14.93884766 -47 15 C-47.33 14.67 -47.66 14.34 -48 14 C-50.41537838 13.58282721 -50.41537838 13.58282721 -53 14 C-55.16197737 15.78922265 -55.89157192 17.15798822 -56.25 19.94140625 C-56.36386881 23.80582909 -56.17344957 25.73982565 -54 29 C-52.02252878 29.36297936 -52.02252878 29.36297936 -49.875 29.1875 C-48.59625 29.125625 -47.3175 29.06375 -46 29 C-46 28.34 -46 27.68 -46 27 C-46.99 26.67 -47.98 26.34 -49 26 C-49 23.69 -49 21.38 -49 19 C-45.04 18.34 -41.08 17.68 -37 17 C-36.67 21.29 -36.34 25.58 -36 30 C-32.04 20.43 -28.08 10.86 -24 1 C-21.03 1 -18.06 1 -15 1 C-11.67032583 9.51900678 -9.24532165 18.15008858 -7 27 C-6.67 27 -6.34 27 -6 27 C-5.85377197 26.2886792 -5.70754395 25.5773584 -5.55688477 24.84448242 C-4.89396975 21.62509784 -4.22826801 18.40629573 -3.5625 15.1875 C-3.33240234 14.06794922 -3.10230469 12.94839844 -2.86523438 11.79492188 C-2.64287109 10.72177734 -2.42050781 9.64863281 -2.19140625 8.54296875 C-1.98717041 7.55321045 -1.78293457 6.56345215 -1.57250977 5.54370117 C-1 3 -1 3 0 0 Z " fill="#0D0D0D" transform="translate(248,1)"/>
<path d="M0 0 C2.44950621 2.44950621 2.32271254 3.24723021 2.375 6.625 C2.22179128 14.20883163 -1.10420089 19.39130382 -6 25 C-16.11299089 33.41308644 -28.12652444 40.09077621 -41.66015625 39.35546875 C-46.28573321 38.65275172 -49.01217963 36.88650546 -52.4375 33.8125 C-54.21048712 30.62112318 -54.28377336 28.61063698 -53.6015625 25.0390625 C-52.60080696 21.64689111 -51.03516893 18.8492365 -49 16 C-48.55011719 15.36191406 -48.10023438 14.72382813 -47.63671875 14.06640625 C-42.60132286 7.65658468 -36.08576645 3.85770764 -29 0 C-27.96552734 -0.57814453 -27.96552734 -0.57814453 -26.91015625 -1.16796875 C-18.86781618 -4.91636795 -7.47020498 -4.49088569 0 0 Z " fill="#FBFBFB" transform="translate(310,376)"/>
<path d="M0 0 C0 4 0 4 -1.6875 6.125 C-4 8 -4 8 -6.6875 9.0625 C-7.450625 9.371875 -8.21375 9.68125 -9 10 C-9.33 10.99 -9.66 11.98 -10 13 C-9.3709375 12.71125 -8.741875 12.4225 -8.09375 12.125 C-2.48433988 9.69200284 1.88649653 7.96381297 8 9 C11.09706134 11.52821334 12.77523331 12.97709979 13.21875 16.96875 C12.73957012 23.19808838 9.94517332 27.32007759 5.25 31.375 C0.9977231 33.50113845 -1.28849569 33.54066443 -6 33 C-7.73828125 31.47265625 -7.73828125 31.47265625 -9 30 C-2.80357143 24.16071429 -2.80357143 24.16071429 0.8125 23.4375 C1.534375 23.293125 2.25625 23.14875 3 23 C4.16352704 20.51062047 4.16352704 20.51062047 5 18 C4.28714844 18.28875 3.57429688 18.5775 2.83984375 18.875 C-9.22145329 23.55017301 -9.22145329 23.55017301 -15.4375 21 C-15.953125 20.67 -16.46875 20.34 -17 20 C-18.32 21.32 -19.64 22.64 -21 24 C-19.26005872 29.84690927 -16.41615295 34.72733621 -13.36328125 39.9765625 C-12 43 -12 43 -12.171875 45.2890625 C-13.31507091 47.6509484 -14.77983655 48.6544464 -17 50 C-17.66 50 -18.32 50 -19 50 C-19.54269531 48.96359375 -20.08539063 47.9271875 -20.64453125 46.859375 C-21.36700609 45.48948764 -22.08967243 44.11970127 -22.8125 42.75 C-23.16892578 42.06808594 -23.52535156 41.38617188 -23.89257812 40.68359375 C-25.71253627 37.24403982 -27.52630681 34.02773804 -30 31 C-31.99983534 31.79117904 -31.99983534 31.79117904 -34 33 C-34.33 33.99 -34.66 34.98 -35 36 C-34.67 36.66 -34.34 37.32 -34 38 C-34.0825 39.258125 -34.165 40.51625 -34.25 41.8125 C-34.30822942 45.39037453 -34.1507501 45.82072961 -31.6875 48.75 C-30.800625 49.4925 -29.91375 50.235 -29 51 C-27.125 53.125 -27.125 53.125 -26 55 C-27 58 -27 58 -30.0625 59.6875 C-31.031875 60.120625 -32.00125 60.55375 -33 61 C-34.32 59.02 -35.64 57.04 -37 55 C-40.465 55.495 -40.465 55.495 -44 56 C-43.01 59.63 -42.02 63.26 -41 67 C-46.75 71 -46.75 71 -49 71 C-50.65006981 66.91836588 -52.29431993 62.83441212 -53.9375 58.75 C-54.64036133 57.01169922 -54.64036133 57.01169922 -55.35742188 55.23828125 C-55.80537109 54.12324219 -56.25332031 53.00820313 -56.71484375 51.859375 C-57.12855225 50.83295898 -57.54226074 49.80654297 -57.96850586 48.74902344 C-58.81309428 46.49812032 -59.48756809 44.34394693 -60 42 C-57.82460004 40.47933206 -55.63742231 38.98444606 -53.4375 37.5 C-52.82841797 37.07074219 -52.21933594 36.64148438 -51.59179688 36.19921875 C-47.27249271 33.31968264 -44.33830192 32.41931944 -39 33 C-38.34 33.33 -37.68 33.66 -37 34 C-37.66 32.02 -38.32 30.04 -39 28 C-36.61385271 25.86391556 -34.21450156 23.74323022 -31.8125 21.625 C-31.13896484 21.02171875 -30.46542969 20.4184375 -29.77148438 19.796875 C-26.24842464 16.7034567 -23.39708641 14.69924035 -19 13 C-17.77485376 11.25331328 -17.77485376 11.25331328 -17.0625 9.1875 C-13.40384254 1.2168534 -8.59758915 -0.85975892 0 0 Z " fill="#0A0A0A" transform="translate(422,396)"/>
<path d="M0 0 C2.4375 0.8125 2.4375 0.8125 5 2 C6 5 6 5 5.00390625 7.15625 C4.52824219 7.9296875 4.05257813 8.703125 3.5625 9.5 C1.39354937 12.9718017 1.39354937 12.9718017 1 17 C1.66 17 2.32 17 3 17 C4.36277086 15.21034453 4.36277086 15.21034453 5.625 13 C6.07101562 12.2575 6.51703125 11.515 6.9765625 10.75 C7.31429688 10.1725 7.65203125 9.595 8 9 C11.72443763 10.44171779 11.72443763 10.44171779 12.90234375 12.828125 C13.03439982 15.7650519 12.06935125 17.25083208 10.5625 19.75 C10.08941406 20.54921875 9.61632812 21.3484375 9.12890625 22.171875 C8.75636719 22.77515625 8.38382812 23.3784375 8 24 C9.32 24.33 10.64 24.66 12 25 C13.98 21.37 15.96 17.74 18 14 C23 16 23 16 25 19 C21.37 25.6 17.74 32.2 14 39 C8.88761814 35.16571361 3.85446124 31.32188344 -1.1171875 27.3203125 C-2.88964921 25.80861794 -2.88964921 25.80861794 -5 26 C-6.89611924 27.96634588 -8 29.14804729 -8 31.9375 C-6.8886117 34.22973836 -5.44829484 35.70232024 -3.61328125 37.4453125 C-1.5540621 39.42974161 0.42057328 41.47458354 2.375 43.5625 C3.08398438 44.30628906 3.79296875 45.05007813 4.5234375 45.81640625 C6 48 6 48 5.9765625 50.02734375 C5 52 5 52 1 56 C-3.95 51.05 -8.9 46.1 -14 41 C-16.97 43.475 -16.97 43.475 -20 46 C-22.0625 44.25 -22.0625 44.25 -24 42 C-23.62825385 38.8470419 -22.32629076 36.72756463 -20.5234375 34.1640625 C-20.02070313 33.43606445 -19.51796875 32.70806641 -19 31.95800781 C-18.46375 31.18811523 -17.9275 30.41822266 -17.375 29.625 C-12.82047755 22.96320146 -8.89331309 16.33245634 -5.5 9.015625 C-3.89116271 5.7811917 -2.05827236 2.96320246 0 0 Z " fill="#0D0D0D" transform="translate(450,341)"/>
<path d="M0 0 C9.59538395 3.51129565 18.79543083 7.58231604 28 12 C27.67 14.64 27.34 17.28 27 20 C25.603522 19.54363464 24.2078492 19.08480512 22.8125 18.625 C21.64654297 18.24214844 21.64654297 18.24214844 20.45703125 17.8515625 C17.94255032 16.98008898 15.47087874 15.9883515 13 15 C16.96 17.97 20.92 20.94 25 24 C24.67 26.31 24.34 28.62 24 31 C19.05 30.67 14.1 30.34 9 30 C15.435 32.97 15.435 32.97 22 36 C22 37.98 22 39.96 22 42 C19.26710398 43.07772155 18.09115415 43.0297182 15.25097656 42.10375977 C14.22456055 41.63768311 13.19814453 41.17160645 12.140625 40.69140625 C11.02558594 40.19189453 9.91054688 39.69238281 8.76171875 39.17773438 C7.60285156 38.64470703 6.44398438 38.11167969 5.25 37.5625 C4.07566406 37.03333984 2.90132813 36.50417969 1.69140625 35.95898438 C-1.21055817 34.64956141 -4.10723611 33.32959531 -7 32 C-6.85957123 30.35369672 -6.71250671 28.70795821 -6.5625 27.0625 C-6.48128906 26.14597656 -6.40007812 25.22945313 -6.31640625 24.28515625 C-6 22 -6 22 -5 21 C-2.64686445 20.92728259 -0.29166332 20.91629132 2.0625 20.9375 C3.35285156 20.94652344 4.64320313 20.95554687 5.97265625 20.96484375 C6.97167969 20.97644531 7.97070312 20.98804688 9 21 C8.19433594 20.47792969 7.38867188 19.95585937 6.55859375 19.41796875 C-1.73063019 13.49413036 -1.73063019 13.49413036 -2.54296875 8.98828125 C-1.8423913 1.8423913 -1.8423913 1.8423913 0 0 Z " fill="#0A0A0A" transform="translate(468,281)"/>
<path d="M0 0 C3.40920514 2.411389 5.69634878 5.08019755 7.5625 8.8125 C8.07009952 12.84429044 8.47446954 16.98477682 6.62109375 20.69921875 C3.35287242 24.7665663 -0.35115498 27.44385005 -5.48828125 28.3515625 C-11.35522504 28.50614066 -15.49907123 28.51383023 -20.125 24.625 C-23.9040141 20.65504624 -25.26097172 17.78961676 -25.75 12.3125 C-25.33862434 7.70509259 -24.30599374 5.47490987 -20.84375 2.39453125 C-14.37010368 -2.34131247 -7.47470859 -2.58217206 0 0 Z " fill="#090909" transform="translate(455.4375,110.1875)"/>
<path d="M0 0 C4.7031093 2.03088811 7.71789119 5.43578239 10 10 C11.1909601 22.16480673 11.1909601 22.16480673 7.9375 27.125 C4.66240154 30.83248506 0.86531336 32.61250048 -4.05078125 33.27734375 C-7.17160245 33.42427507 -9.7989142 33.06855198 -12.75 32.0625 C-17.46896054 27.73678617 -19.22402507 22.11234159 -19.5 15.8125 C-19.29253829 11.19826548 -18.10130888 8.52040468 -15 5 C-10.03897004 0.62956885 -6.64843258 -0.70455451 0 0 Z " fill="#080808" transform="translate(357,444)"/>
<path d="M0 0 C2.72977064 -0.08126109 5.4571017 -0.14061663 8.1875 -0.1875 C9.34088867 -0.22520508 9.34088867 -0.22520508 10.51757812 -0.26367188 C15.19291468 -0.32386934 18.22898244 -0.06782964 22 3 C25.02840115 6.10809591 25.45555014 8.46058881 25.5 12.75 C25.34560236 18.49780301 24.21719578 22.92991571 20 27 C14.66661826 30.58850993 9.80827612 30.35950269 3.625 30.1875 C2.69816406 30.17396484 1.77132812 30.16042969 0.81640625 30.14648438 C-1.45633998 30.11133881 -3.72785847 30.06214132 -6 30 C-5.38627074 23.12199963 -4.10103248 16.6335677 -2.4375 9.9375 C-2.20353516 8.97650391 -1.96957031 8.01550781 -1.72851562 7.02539062 C-1.15732057 4.68232518 -0.58107577 2.34063082 0 0 Z " fill="#070707" transform="translate(235,469)"/>
<path d="M0 0 C6.56452677 1.30051946 12.84755191 5.04322901 17.75 9.5 C19.4083932 12.81678641 19.13836331 14.50901919 18 18 C16.6875 19.875 16.6875 19.875 15 21 C13.68 21 12.36 21 11 21 C11.2475 21.886875 11.495 22.77375 11.75 23.6875 C12 27 12 27 10.1875 29.8125 C7.48547034 32.51452966 6.54695422 32.9158532 2.75 33.5 C-4.12104642 33.46203842 -12.85324589 28.83912845 -17.91796875 24.26953125 C-18.27503906 23.85058594 -18.63210937 23.43164062 -19 23 C-12.84079364 15.181867 -6.45650969 7.57215658 0 0 Z " fill="#0B0B0B" transform="translate(137,438)"/>
<path d="M0 0 C10.23 0 20.46 0 31 0 C35.14925373 16.59701493 35.14925373 16.59701493 32.625 21.875 C31 24 31 24 29 25 C22.75206612 25.46280992 22.75206612 25.46280992 19.5625 23.5 C19.046875 23.005 18.53125 22.51 18 22 C17.41798828 22.70576172 17.41798828 22.70576172 16.82421875 23.42578125 C14.52497076 25.40992887 12.78688189 25.68533163 9.8125 26.1875 C8.91144531 26.34605469 8.01039062 26.50460937 7.08203125 26.66796875 C6.39496094 26.77753906 5.70789063 26.88710938 5 27 C4.67 24.03 4.34 21.06 4 18 C6.64 17.34 9.28 16.68 12 16 C12.33 13.69 12.66 11.38 13 9 C9.04 9 5.08 9 1 9 C0.67 6.03 0.34 3.06 0 0 Z " fill="#0D0D0D" transform="translate(4,287)"/>
<path d="M0 0 C2.9375 2 2.9375 2 5 5 C5 7.66666667 5 10.33333333 5 13 C7.22930256 15.81268079 7.22930256 15.81268079 10 18 C11.875 20.125 11.875 20.125 13 22 C12 25 12 25 8.9375 26.6875 C7.968125 27.120625 6.99875 27.55375 6 28 C4.68 26.02 3.36 24.04 2 22 C-0.31 22.33 -2.62 22.66 -5 23 C-4.01 26.63 -3.02 30.26 -2 34 C-7.75 38 -7.75 38 -10 38 C-11.65006981 33.91836588 -13.29431993 29.83441212 -14.9375 25.75 C-15.64036133 24.01169922 -15.64036133 24.01169922 -16.35742188 22.23828125 C-16.80537109 21.12324219 -17.25332031 20.00820313 -17.71484375 18.859375 C-18.12855225 17.83295898 -18.54226074 16.80654297 -18.96850586 15.74902344 C-19.81309428 13.49812032 -20.48756809 11.34394693 -21 9 C-18.82460004 7.47933206 -16.63742231 5.98444606 -14.4375 4.5 C-13.82841797 4.07074219 -13.21933594 3.64148438 -12.59179688 3.19921875 C-8.28903927 0.33071368 -5.31946722 -0.67138907 0 0 Z " fill="#0A0A0A" transform="translate(383,429)"/>
<path d="M0 0 C1.625 2.75 1.625 2.75 3 6 C1.77543633 9.73491918 -0.8536917 12.05787194 -3.625 14.75 C-4.44226563 15.54921875 -5.25953125 16.3484375 -6.1015625 17.171875 C-6.72804688 17.77515625 -7.35453125 18.3784375 -8 19 C-7.18015625 18.7834375 -6.3603125 18.566875 -5.515625 18.34375 C-4.43796875 18.0653125 -3.3603125 17.786875 -2.25 17.5 C-1.18265625 17.2215625 -0.1153125 16.943125 0.984375 16.65625 C4 16 4 16 8 16 C11 21.75 11 21.75 11 24 C6.58742214 25.20306535 2.16939401 26.38474271 -2.25 27.5625 C-4.13138672 28.07586914 -4.13138672 28.07586914 -6.05078125 28.59960938 C-7.25605469 28.91865234 -8.46132813 29.23769531 -9.703125 29.56640625 C-10.81333008 29.86490479 -11.92353516 30.16340332 -13.06738281 30.47094727 C-17.71347987 31.30911679 -17.71347987 31.30911679 -20 30 C-20.99 27.69 -21.98 25.38 -23 23 C-19.37 19.37 -15.74 15.74 -12 12 C-14.3203125 12.4640625 -14.3203125 12.4640625 -16.6875 12.9375 C-20.125 13.625 -23.5625 14.3125 -27 15 C-31 9.25 -31 9.25 -31 7 C-26.77363854 5.82300462 -22.54349462 4.66021981 -18.3125 3.5 C-17.11431641 3.16613281 -15.91613281 2.83226562 -14.68164062 2.48828125 C-13.52470703 2.17246094 -12.36777344 1.85664063 -11.17578125 1.53125 C-10.11270752 1.23798828 -9.04963379 0.94472656 -7.9543457 0.64257812 C-5.1903768 0.04140747 -2.81542433 -0.12745656 0 0 Z " fill="#0B0B0B" transform="translate(51,339)"/>
<path d="M0 0 C1.99125745 1.28145886 3.4802613 2.29238934 4.8828125 4.21166992 C4.36971993 7.95724566 2.52240883 11.12990689 0.8203125 14.46166992 C0.27246094 15.53932617 -0.27539062 16.61698242 -0.83984375 17.72729492 C-1.26136719 18.54713867 -1.68289062 19.36698242 -2.1171875 20.21166992 C-1.36953125 19.71795898 -0.621875 19.22424805 0.1484375 18.71557617 C1.13328125 18.07491211 2.118125 17.43424805 3.1328125 16.77416992 C4.10734375 16.13608398 5.081875 15.49799805 6.0859375 14.84057617 C8.46662865 13.45405632 10.20061557 12.66508893 12.8828125 12.21166992 C16.8828125 16.96166992 16.8828125 16.96166992 16.8828125 19.21166992 C15.11035156 20.58447266 15.11035156 20.58447266 12.6484375 22.14526367 C11.76414063 22.71180664 10.87984375 23.27834961 9.96875 23.86206055 C9.03289062 24.45180664 8.09703125 25.04155273 7.1328125 25.64916992 C5.30393371 26.81335117 3.47578234 27.97867614 1.6484375 29.14526367 C0.42302246 29.91954712 0.42302246 29.91954712 -0.82714844 30.70947266 C-2.99442177 32.13113927 -5.06273165 33.63252062 -7.1171875 35.21166992 C-10.45882649 33.82892275 -12.37485498 32.42122984 -14.1171875 29.21166992 C-13.68977065 25.06572647 -12.09121183 21.99558523 -10.0546875 18.39916992 C-9.50683594 17.42334961 -8.95898438 16.4475293 -8.39453125 15.44213867 C-7.76224609 14.33805664 -7.76224609 14.33805664 -7.1171875 13.21166992 C-8.34695312 14.09532227 -8.34695312 14.09532227 -9.6015625 14.99682617 C-10.67921875 15.74834961 -11.756875 16.49987305 -12.8671875 17.27416992 C-13.93453125 18.02827148 -15.001875 18.78237305 -16.1015625 19.55932617 C-19.1171875 21.21166992 -19.1171875 21.21166992 -21.2578125 21.27026367 C-23.90790146 19.76149454 -25.35718845 17.66309717 -27.1171875 15.21166992 C-24.45121964 13.48142409 -21.78428226 11.75267809 -19.1171875 10.02416992 C-18.37339844 9.54141602 -17.62960938 9.05866211 -16.86328125 8.5612793 C-15.36406434 7.59004748 -13.86143361 6.62406543 -12.35546875 5.66333008 C-10.85549745 4.69050838 -9.37342435 3.68955477 -7.91015625 2.66235352 C-7.21535156 2.18749512 -6.52054688 1.71263672 -5.8046875 1.22338867 C-5.18980469 0.78857178 -4.57492188 0.35375488 -3.94140625 -0.09423828 C-2.1171875 -0.78833008 -2.1171875 -0.78833008 0 0 Z " fill="#0A0A0A" transform="translate(87.1171875,395.788330078125)"/>
<path d="M0 0 C4.875 4.625 4.875 4.625 6 8 C4.42699586 10.36097631 2.84789758 12.49902461 1.0625 14.6875 C0.58103516 15.29400391 0.09957031 15.90050781 -0.39648438 16.52539062 C-1.58849658 18.02425746 -2.79308951 19.51310325 -4 21 C-3.10796875 20.62746094 -2.2159375 20.25492187 -1.296875 19.87109375 C-0.12640625 19.39800781 1.0440625 18.92492187 2.25 18.4375 C3.41015625 17.96183594 4.5703125 17.48617188 5.765625 16.99609375 C10.21394191 15.62614108 10.21394191 15.62614108 13 17 C15 20 15 20 15 23 C9.49215667 25.80999699 3.95037565 28.41793723 -1.75 30.8125 C-2.49121094 31.13669922 -3.23242188 31.46089844 -3.99609375 31.79492188 C-5.07310547 32.24641602 -5.07310547 32.24641602 -6.171875 32.70703125 C-7.1323877 33.11659058 -7.1323877 33.11659058 -8.11230469 33.53442383 C-10.4402734 34.10858786 -11.76487933 33.82317433 -14 33 C-15.8125 31.25 -15.8125 31.25 -17 29 C-16.66534 24.50490775 -14.7878641 22.08079059 -11.9375 18.6875 C-11.20402344 17.80449219 -10.47054687 16.92148437 -9.71484375 16.01171875 C-9.14894531 15.34785156 -8.58304688 14.68398438 -8 14 C-8.89203125 14.38414062 -9.7840625 14.76828125 -10.703125 15.1640625 C-11.87359375 15.64617187 -13.0440625 16.12828125 -14.25 16.625 C-15.99023438 17.35589844 -15.99023438 17.35589844 -17.765625 18.1015625 C-21 19 -21 19 -23.34375 18.3125 C-25.58235663 16.53850984 -26.15316295 14.68165065 -27 12 C-21.10119038 8.96866728 -15.12471188 6.29020308 -9 3.75 C-7.69482422 3.20472656 -7.69482422 3.20472656 -6.36328125 2.6484375 C-4.24321107 1.76313347 -2.12212147 0.88037286 0 0 Z " fill="#090909" transform="translate(62,363)"/>
<path d="M0 0 C2.97 0 5.94 0 9 0 C9.26554687 0.67546875 9.53109375 1.3509375 9.8046875 2.046875 C10.15789062 2.93890625 10.51109375 3.8309375 10.875 4.75 C11.22304688 5.63171875 11.57109375 6.5134375 11.9296875 7.421875 C12.85749079 9.65672963 13.91783604 11.83567209 15 14 C15.99 9.71 16.98 5.42 18 1 C20.97 1 23.94 1 27 1 C25.25143512 11.05424806 23.1301773 21.02125685 21 31 C17.7 31 14.4 31 11 31 C10.32844651 28.73050898 9.6626037 26.4596039 9 24.1875 C8.62875 22.92292969 8.2575 21.65835937 7.875 20.35546875 C7 17 7 17 7 14 C6.34 14 5.68 14 5 14 C4.95101562 14.56847656 4.90203125 15.13695312 4.8515625 15.72265625 C4.36856919 20.71081129 3.52361837 25.22599578 2 30 C-0.97 30 -3.94 30 -7 30 C-6.74605469 29.00742187 -6.49210938 28.01484375 -6.23046875 26.9921875 C-3.9545665 18.0305451 -1.86800239 9.05698128 0 0 Z " fill="#0A0A0A" transform="translate(248,1)"/>
<path d="M0 0 C2.6875 2 2.6875 2 4 4 C3.67 4.99 3.34 5.98 3 7 C-1.49315664 8.6739211 -5.26155367 9 -10 9 C-12.33966344 10.91554238 -12.33966344 10.91554238 -12.3125 14.25 C-11.98188343 18.21739888 -10.9941069 20.59340071 -9 24 C-5.56206661 23.81870185 -5.56206661 23.81870185 -2 23 C-0.48705712 21.06402968 -0.48705712 21.06402968 0 19 C-1.32 19.33 -2.64 19.66 -4 20 C-4.33 18.02 -4.66 16.04 -5 14 C-1.7 12.35 1.6 10.7 5 9 C7.784293 11.784293 7.94910069 14.886863 8.625 18.625 C8.7590625 19.33140625 8.893125 20.0378125 9.03125 20.765625 C9.36110025 22.50911918 9.68146056 24.25440389 10 26 C4.25 28 4.25 28 2 28 C0.64567325 29.31200404 -0.68733482 30.64631404 -2 32 C-5.49887916 33.74943958 -9.18208741 33.55276176 -13 33 C-17.59907879 30.27461997 -20.0027292 27.25591521 -21.59375 22.24609375 C-22.61146686 16.6192938 -21.85443675 11.7088735 -19.3125 6.625 C-13.66037822 0.20907798 -8.37657029 -1.35906913 0 0 Z " fill="#0D0D0D" transform="translate(163,20)"/>
<path d="M0 0 C3.93411629 3.38516983 6.44420859 6.24452298 7.0625 11.5 C6.6875 14.3125 6.6875 14.3125 4.6875 17.3125 C-2.03534003 14.06699102 -2.03534003 14.06699102 -3.4375 10.25 C-3.72625 9.280625 -4.015 8.31125 -4.3125 7.3125 C-4.6425 6.9825 -4.9725 6.6525 -5.3125 6.3125 C-9.58702283 6.47690472 -11.82106651 6.93608286 -15.25 9.5625 C-17.49273403 12.11007743 -17.49273403 12.11007743 -17.75 15 C-17.50223497 17.49832291 -17.50223497 17.49832291 -15.3125 19.3125 C-12.74188689 19.96017793 -12.74188689 19.96017793 -10.3125 20.3125 C-10.9725 18.9925 -11.6325 17.6725 -12.3125 16.3125 C-11.0625 14.75 -11.0625 14.75 -9.3125 13.3125 C-6.14231453 13.7351914 -4.09192449 14.97793163 -1.5625 16.875 C-0.94890625 17.33003906 -0.3353125 17.78507812 0.296875 18.25390625 C0.75578125 18.60324219 1.2146875 18.95257813 1.6875 19.3125 C0.16690093 23.19264936 -2.17328531 25.05156562 -5.4375 27.5625 C-6.34757812 28.26890625 -7.25765625 28.9753125 -8.1953125 29.703125 C-8.89398438 30.23421875 -9.59265625 30.7653125 -10.3125 31.3125 C-14.1875 29.5625 -14.1875 29.5625 -15.3125 27.3125 C-14.9825 26.6525 -14.6525 25.9925 -14.3125 25.3125 C-15.6428125 25.43625 -15.6428125 25.43625 -17 25.5625 C-21.10318934 25.25282533 -22.47049111 24.23345359 -25.3125 21.3125 C-27.36044219 17.60669985 -27.88773743 14.50351553 -27.3125 10.3125 C-25.29897099 5.1202526 -22.40893152 1.96762515 -17.5625 -0.75 C-11.0886105 -3.60159418 -6.2312652 -3.17441812 0 0 Z " fill="#0C0C0C" transform="translate(115.3125,420.6875)"/>
<path d="M0 0 C2.68088095 2.083655 4.09173939 4.19433585 5.578125 7.2265625 C6.19730207 12.26843297 5.56220905 15.12344693 2.578125 19.2265625 C-0.8732935 15.95213982 -2.93073567 13.9278288 -3.796875 9.1640625 C-4.32404436 6.8428677 -4.32404436 6.8428677 -7.421875 5.2265625 C-12.21995827 5.43517482 -15.15978778 6.67664406 -18.421875 10.2265625 C-19.0056946 13.311637 -19.0056946 13.311637 -18.421875 16.2265625 C-16.2833265 18.365111 -15.28912186 18.65311313 -12.421875 19.2265625 C-13.081875 17.9065625 -13.741875 16.5865625 -14.421875 15.2265625 C-13.101875 14.2365625 -11.781875 13.2465625 -10.421875 12.2265625 C-6.13283265 13.8150967 -4.09841974 16.65783618 -1.421875 20.2265625 C-1.421875 20.8865625 -1.421875 21.5465625 -1.421875 22.2265625 C-3.90625 23.98828125 -3.90625 23.98828125 -7.171875 25.9140625 C-8.23921875 26.55730469 -9.3065625 27.20054688 -10.40625 27.86328125 C-13.421875 29.2265625 -13.421875 29.2265625 -15.6875 29.12109375 C-17.421875 28.2265625 -17.421875 28.2265625 -19.421875 25.2265625 C-19.091875 24.8965625 -18.761875 24.5665625 -18.421875 24.2265625 C-19.329375 23.8553125 -20.236875 23.4840625 -21.171875 23.1015625 C-25.02880929 20.8764081 -26.46503787 19.21549973 -28.421875 15.2265625 C-29.18217635 10.94122762 -29.33024221 8.80351055 -27.1640625 5.04296875 C-20.03190188 -3.99663017 -9.94668251 -6.22787779 0 0 Z " fill="#0C0C0C" transform="translate(439.421875,86.7734375)"/>
<path d="M0 0 C3.47124859 1.93588864 5.22291483 3.40699692 7.25 6.8125 C7.5 9.625 7.5 9.625 7.25 11.8125 C4.28 11.4825 1.31 11.1525 -1.75 10.8125 C-2.08 9.8225 -2.41 8.8325 -2.75 7.8125 C-5.49961511 6.86642193 -5.49961511 6.86642193 -8.75 6.8125 C-11.83088544 8.5585079 -11.83088544 8.5585079 -13.75 11.8125 C-14.20540759 14.86580091 -14.19187329 17.75726183 -13.75 20.8125 C-12.63163776 22.15654775 -12.63163776 22.15654775 -9.75 21.9375 C-6.86836224 22.15654775 -6.86836224 22.15654775 -5.75 20.8125 C-6.41 20.4825 -7.07 20.1525 -7.75 19.8125 C-7.42 17.8325 -7.09 15.8525 -6.75 13.8125 C-2.46 14.1425 1.83 14.4725 6.25 14.8125 C4.48196827 20.28497917 2.59565002 25.56271185 0.25 30.8125 C-1.4 30.8125 -3.05 30.8125 -4.75 30.8125 C-4.75 29.8225 -4.75 28.8325 -4.75 27.8125 C-5.265625 28.1425 -5.78125 28.4725 -6.3125 28.8125 C-9.68843074 30.19749723 -12.12415116 30.18758781 -15.75 29.8125 C-19.45390021 27.78583762 -21.40363011 26.33205484 -23.75 22.8125 C-24.42920372 17.33938164 -24.49881716 12.3965363 -22.125 7.375 C-15.40901998 0.12881103 -9.87451045 -3.12692831 0 0 Z " fill="#0B0B0B" transform="translate(297.75,5.1875)"/>
<path d="M0 0 C2.69990662 1.79993774 4.5418865 3.083773 6 6 C6.67757338 10.83980983 6.4893257 14.1318415 4.0625 18.4375 C0.03674336 21.80599025 -2.84929033 22.23123736 -8 23 C-8 26.63 -8 30.26 -8 34 C-10.64 34.66 -13.28 35.32 -16 36 C-17.92766028 25.72598086 -18.97801121 15.39384344 -20 5 C-17.79567015 4.15450362 -15.58751467 3.32357186 -13.375 2.5 C-11.53035156 1.80390625 -11.53035156 1.80390625 -9.6484375 1.09375 C-6.14486524 0.04342855 -3.62133115 -0.36473839 0 0 Z " fill="#0A0A0A" transform="translate(331,455)"/>
<path d="M0 0 C2.17282858 0.89383918 4.24162791 1.89916611 6.3359375 2.9609375 C5.67545435 9.73958039 4.58902128 16.34324706 3.2734375 23.0234375 C3.08716797 23.98443359 2.90089844 24.94542969 2.70898438 25.93554688 C2.25448188 28.27798281 1.79674848 30.61973594 1.3359375 32.9609375 C-1.78696885 32.47515207 -4.65986609 31.9623363 -7.6640625 30.9609375 C-7.7053125 30.1978125 -7.7465625 29.4346875 -7.7890625 28.6484375 C-8.45236167 25.68692485 -8.45236167 25.68692485 -11.4765625 24.0234375 C-14.48984441 22.61840866 -14.48984441 22.61840866 -16.6015625 23.8359375 C-17.2821875 24.2071875 -17.9628125 24.5784375 -18.6640625 24.9609375 C-24.70572917 24.44010417 -24.70572917 24.44010417 -27.6640625 22.9609375 C-27.6640625 22.3009375 -27.6640625 21.6409375 -27.6640625 20.9609375 C-26.17668015 19.60711601 -24.61975699 18.32953864 -23.0390625 17.0859375 C-19.59990645 14.3595599 -16.24239043 11.61351058 -12.9921875 8.6640625 C-12.06913818 7.83624268 -12.06913818 7.83624268 -11.12744141 6.99169922 C-9.91610683 5.90069376 -8.71489802 4.79832376 -7.52490234 3.68408203 C-3.33627511 -0.04891899 -3.33627511 -0.04891899 0 0 Z " fill="#0B0B0B" transform="translate(170.6640625,453.0390625)"/>
<path d="M0 0 C1.65 1.65 3.3 3.3 5 5 C4.05208333 6.421875 3.10416667 7.84375 2.15625 9.265625 C1.7746875 9.83796875 1.393125 10.4103125 1 11 C-0.33333333 13 -1.66666667 15 -3 17 C-2.01 17.33 -1.02 17.66 0 18 C1.65 15.69 3.3 13.38 5 11 C6.9375 11.75 6.9375 11.75 9 13 C9.81640625 14.85546875 9.81640625 14.85546875 10 17 C8.75 18.81640625 8.75 18.81640625 7 20.5625 C5.24931445 22.23225577 5.24931445 22.23225577 4 24 C4.33 24.99 4.66 25.98 5 27 C8.21549219 25.62193192 9.97220001 24.11390261 12.125 21.375 C13.6328125 19.4609375 13.6328125 19.4609375 15 18 C15.66 18 16.32 18 17 18 C18.6875 19.75 18.6875 19.75 20 22 C19.79077534 25.34759458 18.20014594 27.53583655 16 30 C15.34 30 14.68 30 14 30 C13.73445313 30.58265625 13.46890625 31.1653125 13.1953125 31.765625 C11.96697004 34.06174228 10.59685061 35.80356018 8.875 37.75 C8.33617188 38.36359375 7.79734375 38.9771875 7.2421875 39.609375 C6.83226563 40.06828125 6.42234375 40.5271875 6 41 C2.50685531 38.36503272 -0.21382208 35.71726086 -2.875 32.25 C-6.00337966 28.20992113 -9.28634498 24.45168022 -12.84765625 20.7890625 C-14 19 -14 19 -13.91796875 17.046875 C-12.74691306 14.43566997 -11.20193999 12.71636427 -9.25 10.625 C-6.06138821 7.15537746 -2.98863848 3.64240315 0 0 Z " fill="#0A0A0A" transform="translate(68,80)"/>
<path d="M0 0 C4.95998472 0.61632946 8.93671966 2.79835629 13.3125 5.0625 C14.05306641 5.43955078 14.79363281 5.81660156 15.55664062 6.20507812 C17.37387522 7.13128157 19.18732404 8.06490629 21 9 C20.1875 11.4375 20.1875 11.4375 19 14 C16 15 16 15 13.58984375 14.00390625 C12.71457031 13.52824219 11.83929688 13.05257812 10.9375 12.5625 C7.64143463 10.6195006 7.64143463 10.6195006 4 10 C4 10.99 4 11.98 4 13 C6.64 14.32 9.28 15.64 12 17 C10.25 21.875 10.25 21.875 8 23 C5.6171875 22.22265625 5.6171875 22.22265625 2.875 21.0625 C1.96492188 20.68222656 1.05484375 20.30195312 0.1171875 19.91015625 C-0.58148438 19.60980469 -1.28015625 19.30945313 -2 19 C-2.66 20.32 -3.32 21.64 -4 23 C-3.42765625 23.12246094 -2.8553125 23.24492188 -2.265625 23.37109375 C0.09953191 24.02762868 2.07206797 24.93723512 4.25 26.0625 C4.95640625 26.42472656 5.6628125 26.78695312 6.390625 27.16015625 C6.92171875 27.43730469 7.4528125 27.71445312 8 28 C7 30 6 32 5 34 C-0.06040549 33.36111113 -4.28011534 31.13720723 -8.8125 28.9375 C-9.60076172 28.56044922 -10.38902344 28.18339844 -11.20117188 27.79492188 C-13.13652473 26.86829839 -15.06859549 25.93482533 -17 25 C-12.43936802 15.87873603 -6.20261421 8.04547356 0 0 Z " fill="#0A0A0A" transform="translate(348,22)"/>
<path d="M0 0 C2.98354511 1.15492069 5.05151918 2.44420048 7 5 C7.9375 8.8125 7.9375 8.8125 8 12 C0.56550218 11.50436681 0.56550218 11.50436681 -2.3125 8.9375 C-2.869375 8.298125 -3.42625 7.65875 -4 7 C-4.99 7 -5.98 7 -7 7 C-5.84357868 10.46926395 -4.98305356 10.97198451 -2.0625 13 C0.7269604 14.94401596 2.06784883 16.10177325 4 19 C3.85533327 22.97833499 3.60587056 25.25731996 1.0625 28.375 C-3.08578972 31.64334948 -6.86890118 31.59644939 -12 31 C-15.89731654 29.70313432 -19.00560463 27.93224566 -22 25.125 C-23.31817196 22.32388459 -23.20828854 20.05489863 -23 17 C-21.51793505 17.254496 -20.03931385 17.52911762 -18.5625 17.8125 C-17.73878906 17.96332031 -16.91507813 18.11414063 -16.06640625 18.26953125 C-15.04353516 18.63111328 -15.04353516 18.63111328 -14 19 C-13.67 19.99 -13.34 20.98 -13 22 C-9.48809191 23.22969878 -9.48809191 23.22969878 -6 24 C-7.73737098 20.52525804 -9.58656274 18.44594181 -12.625 16.125 C-15.37678895 13.84160066 -15.98710493 13.03610618 -17.25 9.5 C-16.9950502 5.93070276 -16.44045374 3.73784675 -13.91796875 1.109375 C-9.61788543 -1.37784224 -4.73551081 -0.82574297 0 0 Z " fill="#0B0B0B" transform="translate(198,461)"/>
<path d="M0 0 C6.93 0.99 13.86 1.98 21 3 C22 7 22 7 21 10 C15.84828377 10.09038099 11.08086796 9.84681133 6 9 C5.67 10.32 5.34 11.64 5 13 C6.0725 12.979375 7.145 12.95875 8.25 12.9375 C11.14790424 12.9857984 13.28612141 13.13155885 16 14 C15.67 15.98 15.34 17.96 15 20 C11.04 20 7.08 20 3 20 C2.34 21.32 1.68 22.64 1 24 C1.67546875 24.06058594 2.3509375 24.12117188 3.046875 24.18359375 C3.93890625 24.26738281 4.8309375 24.35117187 5.75 24.4375 C6.63171875 24.51871094 7.5134375 24.59992188 8.421875 24.68359375 C10.69350452 24.96238465 12.79851823 25.38790577 15 26 C14.67 28.31 14.34 30.62 14 33 C5.86894139 32.50877547 -2.01920915 31.64733759 -10 30 C-7.56354242 19.67406074 -3.72701194 9.91525819 0 0 Z " fill="#0B0B0B" transform="translate(211,465)"/>
<path d="M0 0 C1.49821059 3.37097383 2 5.20442119 2 9 C-8.395 10.485 -8.395 10.485 -19 12 C-19.33 13.32 -19.66 14.64 -20 16 C-19.34 16.99 -18.68 17.98 -18 19 C-15.47554244 19.32357346 -15.47554244 19.32357346 -12.5546875 19.07421875 C-11.47832031 19.01943359 -10.40195312 18.96464844 -9.29296875 18.90820312 C-8.16503906 18.83537109 -7.03710938 18.76253906 -5.875 18.6875 C-4.73933594 18.62626953 -3.60367188 18.56503906 -2.43359375 18.50195312 C0.37866961 18.3483421 3.18935144 18.18044528 6 18 C6.66 20.64 7.32 23.28 8 26 C1.20404217 27.44156681 -5.50025278 28.24688832 -12.4375 28.375 C-13.75621094 28.40335937 -15.07492188 28.43171875 -16.43359375 28.4609375 C-20.54499664 27.92956232 -22.10275923 26.89724077 -25 24 C-28.02984713 19.61194554 -28.42170187 15.6382642 -28.69140625 10.46484375 C-27.84592417 7.450724 -26.39938487 5.93346523 -23.9230957 4.05541992 C-20.28169537 2.05697208 -16.38782305 1.67703766 -12.3125 1.1875 C-11.45849609 1.06697266 -10.60449219 0.94644531 -9.72460938 0.82226562 C-6.44684003 0.3716689 -3.3124896 0 0 0 Z " fill="#0A0A0A" transform="translate(41,312)"/>
<path d="M0 0 C4.30746475 2.23656823 7.52075882 4.80436107 10 9 C10.31868257 11.76020227 10.18943087 14.20589469 10 17 C6 17 6 17 3.8125 15.8125 C1.60050904 13.60050904 1.33103171 12.06204329 1 9 C-0.32 8.67 -1.64 8.34 -3 8 C-1.93389055 10.78828625 -0.82819717 13.29270111 0.6875 15.875 C2.33859491 19.80617836 2.13389858 21.91796512 1 26 C-1.20199729 29.21830373 -2.60183107 29.88939752 -6.375 30.9375 C-11.51305177 31.0260871 -14.10386972 29.6735077 -17.9296875 26.296875 C-21.1850608 22.97613276 -23.45094801 20.40272704 -23.625 15.625 C-23.315625 13.830625 -23.315625 13.830625 -23 12 C-22.01 11.34 -21.02 10.68 -20 10 C-14.13342898 14.24390244 -14.13342898 14.24390244 -13.4375 18.1875 C-13.2209375 19.5796875 -13.2209375 19.5796875 -13 21 C-10.53744315 22.45291273 -10.53744315 22.45291273 -8 23 C-8.99442381 19.78724616 -10.00680369 16.98815654 -11.6875 14.0625 C-13.35694507 10.16712816 -13.12651061 8.0554382 -12 4 C-9.03914892 -0.61892768 -5.12628398 -0.97973381 0 0 Z " fill="#0B0B0B" transform="translate(409,58)"/>
<path d="M0 0 C6.73312799 0.05518957 13.44656674 1.34417071 20.0625 2.5 C20.81273437 2.63051758 21.56296875 2.76103516 22.3359375 2.89550781 C27.74345605 3.87172803 27.74345605 3.87172803 30 5 C29.125 10.75 29.125 10.75 28 13 C26.02 13 24.04 13 22 13 C21.855625 13.9075 21.71125 14.815 21.5625 15.75 C21 19 21 19 20.3125 21.25 C20.209375 21.8275 20.10625 22.405 20 23 C20.66 23.66 21.32 24.32 22 25 C21.69347955 27.9425963 21.32728846 30.34542308 20 33 C15.55021777 31.3963792 13.11313625 27.96460423 10.1875 24.4375 C9.66140137 23.80706787 9.13530273 23.17663574 8.59326172 22.52709961 C7.543938 21.2661381 6.49732861 20.00291225 5.45361328 18.73730469 C4.19833597 17.23704379 2.89796727 15.77472536 1.58984375 14.3203125 C-2.99602774 9.05066296 -2.99602774 9.05066296 -3.0078125 5.93359375 C-2.41312452 3.66920491 -1.68628861 1.68628861 0 0 Z " fill="#090909" transform="translate(457,323)"/>
<path d="M0 0 C0.9384375 -0.01675781 1.876875 -0.03351563 2.84375 -0.05078125 C5.95475357 0.37469424 7.33371635 1.04914232 9.5 3.3125 C9.5 4.6325 9.5 5.9525 9.5 7.3125 C6.73547967 8.69476016 4.4538637 8.40775387 1.375 8.375 C0.27929688 8.36597656 -0.81640625 8.35695313 -1.9453125 8.34765625 C-2.78835938 8.33605469 -3.63140625 8.32445312 -4.5 8.3125 C-4.5 8.9725 -4.5 9.6325 -4.5 10.3125 C-3.60796875 10.47105469 -2.7159375 10.62960937 -1.796875 10.79296875 C-0.62640625 11.02628906 0.5440625 11.25960938 1.75 11.5 C2.91015625 11.72042969 4.0703125 11.94085938 5.265625 12.16796875 C9.09098324 13.52162813 10.37130271 14.90761769 12.5 18.3125 C13.1237752 22.05515118 12.8473948 23.71498095 10.9375 27 C6.48260987 31.22643422 2.37063282 32.48233782 -3.625 32.75 C-7.12491128 32.63796016 -8.4771515 32.32529516 -11.625 30.5625 C-13.5 28.3125 -13.5 28.3125 -13.5 24.3125 C-7.34765625 23.43359375 -7.34765625 23.43359375 -5.5 23.3125 C-5.17 23.6425 -4.84 23.9725 -4.5 24.3125 C-1.82941149 24.45365161 0.82432238 24.35497107 3.5 24.3125 C3.5 23.3225 3.5 22.3325 3.5 21.3125 C2.69175781 21.22613281 1.88351562 21.13976562 1.05078125 21.05078125 C-7.60909325 19.91214878 -7.60909325 19.91214878 -11.75 17.125 C-14.00990012 13.49301767 -14.17656373 11.52222987 -13.5 7.3125 C-10.00624109 1.69753032 -6.48975998 0.02674352 0 0 Z " fill="#0B0B0B" transform="translate(299.5,462.6875)"/>
<path d="M0 0 C2.97 0 5.94 0 9 0 C17 20.46808511 17 20.46808511 17 29 C14.29120665 30.35439668 11.99066732 30.06501451 9 30 C8.67 28.68 8.34 27.36 8 26 C4.37 26.33 0.74 26.66 -3 27 C-3.33 28.65 -3.66 30.3 -4 32 C-6.64 32 -9.28 32 -12 32 C-11.43153305 27.84346745 -10.48090333 24.34434683 -8.8125 20.5 C-8.37164062 19.47390625 -7.93078125 18.4478125 -7.4765625 17.390625 C-6.74566406 15.71226563 -6.74566406 15.71226563 -6 14 C-5.44428972 12.70356293 -4.88963158 11.40667445 -4.3359375 10.109375 C-2.89630695 6.73713027 -1.44978809 3.36789261 0 0 Z " fill="#080808" transform="translate(224,2)"/>
<path d="M0 0 C2.46800047 1.15173355 4.04783565 2.04783565 6 4 C5.56161781 7.17827091 4.19412693 10.03915249 3 13 C7.81191572 17.92440206 12.70987876 22.59156563 18 27 C17.45276317 30.37462715 16.9451 32.08235 15 35 C11.72186613 34.42093111 10.12851551 33.48537663 7.8359375 31.09375 C6.98902344 30.22556641 6.98902344 30.22556641 6.125 29.33984375 C5.25875 28.42912109 5.25875 28.42912109 4.375 27.5 C3.21830785 26.29999559 2.05954751 25.10198026 0.8984375 23.90625 C0.38974121 23.37322266 -0.11895508 22.84019531 -0.64306641 22.29101562 C-1.9907948 20.882719 -1.9907948 20.882719 -4 20 C-4.99 22.475 -4.99 22.475 -6 25 C-10 25 -10 25 -11.75 23.5 C-12.1625 23.005 -12.575 22.51 -13 22 C-11.29816715 16.88424944 -8.32246469 12.64984185 -5.375 8.1875 C-4.859375 7.39923828 -4.34375 6.61097656 -3.8125 5.79882812 C-2.54558583 3.8632648 -1.27467036 1.93046058 0 0 Z " fill="#0D0D0D" transform="translate(50,101)"/>
<path d="M0 0 C3.68783023 0.45334749 6.29564386 1.54475551 9.42578125 3.50390625 C10.22177734 3.99697266 11.01777344 4.49003906 11.83789062 4.99804688 C12.65451172 5.51431641 13.47113281 6.03058594 14.3125 6.5625 C15.14845703 7.08263672 15.98441406 7.60277344 16.84570312 8.13867188 C18.90144205 9.41910355 20.95257223 10.7063358 23 12 C21.84826645 14.46800047 20.95216435 16.04783565 19 18 C15.82172909 17.56161781 12.96084751 16.19412693 10 15 C5.23363401 20.25442525 0.48507257 25.50216911 -4 31 C-6.875 30.25 -6.875 30.25 -10 29 C-11.1953125 26.921875 -11.1953125 26.921875 -12 25 C-11.28972656 24.30132812 -10.57945312 23.60265625 -9.84765625 22.8828125 C-8.92855469 21.97273438 -8.00945312 21.06265625 -7.0625 20.125 C-5.68771484 18.76761719 -5.68771484 18.76761719 -4.28515625 17.3828125 C-1.98812373 15.22317745 -1.98812373 15.22317745 -1 13 C-0.34 13 0.32 13 1 13 C1.33 11.68 1.66 10.36 2 9 C0.35 8.01 -1.3 7.02 -3 6 C-1.125 1.125 -1.125 1.125 0 0 Z " fill="#0B0B0B" transform="translate(372,34)"/>
<path d="M0 0 C6.75 0.875 6.75 0.875 9 2 C7.3003494 6.73474097 4.86340973 10.96167111 2.375 15.3125 C1.95476562 16.05306641 1.53453125 16.79363281 1.1015625 17.55664062 C0.07051505 19.37269011 -0.96436046 21.18656533 -2 23 C-1.24332031 23.14308594 -0.48664063 23.28617188 0.29296875 23.43359375 C3.2922894 24.06115723 6.10895244 24.99149504 9 26 C8.38722388 28.96175123 7.74627478 30.38058783 6 33 C1.27497299 32.36757331 -2.90570197 31.08186437 -7.375 29.4375 C-8.01566406 29.20353516 -8.65632813 28.96957031 -9.31640625 28.72851562 C-10.8793161 28.15700381 -12.43990727 27.57915771 -14 27 C-12.48221269 21.56701132 -9.9029368 17.15240456 -7 12.375 C-6.10304257 10.88348793 -5.20717176 9.39132174 -4.3125 7.8984375 C-3.91675781 7.24536621 -3.52101563 6.59229492 -3.11328125 5.91943359 C-1.98975459 3.98233566 -0.98037202 2.01278433 0 0 Z " fill="#0B0B0B" transform="translate(324,13)"/>
<path d="M0 0 C1.06031937 -0.00143509 1.06031937 -0.00143509 2.14205933 -0.00289917 C3.63995452 -0.0035795 5.13785267 -0.00173546 6.63574219 0.00244141 C8.90046037 0.00774407 11.16497587 0.00251636 13.4296875 -0.00390625 C20.61606586 -0.00688346 27.67588189 0.1144117 34.8046875 1.1328125 C34.8046875 1.4628125 34.8046875 1.7928125 34.8046875 2.1328125 C31.8346875 2.1328125 28.8646875 2.1328125 25.8046875 2.1328125 C25.6190625 3.8653125 25.6190625 3.8653125 25.4296875 5.6328125 C24.90189865 9.91631625 23.92070713 13.96633922 22.8046875 18.1328125 C20.6554958 14.90902494 19.7796935 12.14866602 18.6796875 8.4453125 C18.32648438 7.26582031 17.97328125 6.08632812 17.609375 4.87109375 C17.34382813 3.96746094 17.07828125 3.06382812 16.8046875 2.1328125 C13.8346875 1.8028125 10.8646875 1.4728125 7.8046875 1.1328125 C7.70671875 1.96941406 7.60875 2.80601563 7.5078125 3.66796875 C6.33746722 12.7785014 4.34906196 21.31396123 1.8046875 30.1328125 C-0.52564795 27.80247705 -0.83289351 26.4194612 -1.66796875 23.265625 C-2.05758789 21.81349609 -2.05758789 21.81349609 -2.45507812 20.33203125 C-2.71998047 19.31753906 -2.98488281 18.30304687 -3.2578125 17.2578125 C-3.52658203 16.25105469 -3.79535156 15.24429687 -4.07226562 14.20703125 C-6.14341147 6.42861318 -6.14341147 6.42861318 -6.59155273 3.87451172 C-6.89041382 3.01237061 -6.89041382 3.01237061 -7.1953125 2.1328125 C-8.1853125 1.8028125 -9.1753125 1.4728125 -10.1953125 1.1328125 C-6.6291178 -0.05591907 -3.76359315 0.00324168 0 0 Z " fill="#F3F3F3" transform="translate(240.1953125,-0.1328125)"/>
<path d="M0 0 C1.90810548 1.24916227 3.38316934 2.45433445 4.84375 4.20703125 C4.84375 4.86703125 4.84375 5.52703125 4.84375 6.20703125 C1.36212878 8.06897485 -2.12504728 9.92001307 -5.61767578 11.76123047 C-7.38746654 12.69709853 -9.15274889 13.64147615 -10.91796875 14.5859375 C-12.03300781 15.17246094 -13.14804688 15.75898438 -14.296875 16.36328125 C-15.32329102 16.90791016 -16.34970703 17.45253906 -17.40722656 18.01367188 C-20.15625 19.20703125 -20.15625 19.20703125 -24.15625 19.20703125 C-26.40625 16.20703125 -26.40625 16.20703125 -28.15625 13.20703125 C-23.51042637 10.56133268 -18.8550891 7.93430811 -14.18261719 5.3359375 C-12.45380959 4.37280421 -10.7302495 3.40026174 -9.0078125 2.42578125 C-8.14929688 1.96171875 -7.29078125 1.49765625 -6.40625 1.01953125 C-5.66890625 0.61347656 -4.9315625 0.20742188 -4.171875 -0.2109375 C-2.15625 -0.79296875 -2.15625 -0.79296875 0 0 Z " fill="#0C0C0C" transform="translate(80.15625,387.79296875)"/>
<path d="M0 0 C0.50723149 3.85325057 1.00448199 7.70772703 1.5 11.5625 C1.64308594 12.64853516 1.78617188 13.73457031 1.93359375 14.85351562 C2.62631236 20.27981138 3.18838153 25.52908631 3 31 C0.09399739 32.25664978 -1.79604584 33 -5 33 C-5.67444768 28.959592 -6.33817587 24.91749334 -7 20.875 C-7.19078125 19.73289062 -7.3815625 18.59078125 -7.578125 17.4140625 C-7.84882813 15.75117188 -7.84882813 15.75117188 -8.125 14.0546875 C-8.29257813 13.03874512 -8.46015625 12.02280273 -8.6328125 10.97607422 C-9.00586777 7.9524414 -9.0634842 5.04327403 -9 2 C-3.375 0 -3.375 0 0 0 Z " fill="#0C0C0C" transform="translate(179,12)"/>
<path d="M0 0 C2.55949546 1.85342775 2.97918798 2.93756393 4 6 C4.56663169 13.13955929 4.56663169 13.13955929 2.3125 16.5625 C0 18 0 18 -2.5 18.125 C-6.16967786 16.47364496 -7.23857157 14.58809496 -9 11 C-9.60538311 7.43496615 -9.69847715 4.24173716 -7.875 1 C-5.10184376 -0.47901666 -3.08815875 -0.38601984 0 0 Z " fill="#F4F4F4" transform="translate(355,452)"/>
<path d="M0 0 C2.4375 1.5 2.4375 1.5 4 3 C3.81631437 7.04108383 3.45597084 8.57739288 0.4375 11.375 C-3.92908168 13.43920225 -6.21858966 13.54868643 -11 13 C-13 11.8125 -13 11.8125 -14 10 C-14.4375 7.5625 -14.4375 7.5625 -14 5 C-10.00757211 0.04388262 -6.18618344 -0.43411814 0 0 Z " fill="#F6F6F6" transform="translate(452,117)"/>
<path d="M0 0 C3.51903714 -0.31991247 5.42015168 -0.37169764 8.4375 1.5625 C10 4 10 4 10.0625 7.4375 C8.79263006 11.69529921 7.60625355 13.41290506 4 16 C0.1875 16.3125 0.1875 16.3125 -3 16 C-2.68954268 14.0830014 -2.37655329 12.16641277 -2.0625 10.25 C-1.88847656 9.18265625 -1.71445313 8.1153125 -1.53515625 7.015625 C-1.11295829 4.63652407 -0.62797116 2.33084789 0 0 Z " fill="#F1F1F1" transform="translate(242,476)"/>
<path d="M0 0 C1.51400391 0.01740234 1.51400391 0.01740234 3.05859375 0.03515625 C4.07050781 0.04417969 5.08242188 0.05320312 6.125 0.0625 C7.29869141 0.07990234 7.29869141 0.07990234 8.49609375 0.09765625 C8.49609375 2.73765625 8.49609375 5.37765625 8.49609375 8.09765625 C4.53609375 8.09765625 0.57609375 8.09765625 -3.50390625 8.09765625 C-3.54632348 5.7647085 -3.54483562 3.43063058 -3.50390625 1.09765625 C-2.50390625 0.09765625 -2.50390625 0.09765625 0 0 Z " fill="#0F0F0F" transform="translate(270.50390625,479.90234375)"/>
<path d="M0 0 C1.98 1.32 3.96 2.64 6 4 C-1 11 -1 11 -2.9453125 11.1953125 C-4.96354167 11.13020833 -6.98177083 11.06510417 -9 11 C-9 10.01 -9 9.02 -9 8 C-7.02 8 -5.04 8 -3 8 C-3.37125 7.13375 -3.37125 7.13375 -3.75 6.25 C-3.8325 5.5075 -3.915 4.765 -4 4 C-2.0625 1.75 -2.0625 1.75 0 0 Z " fill="#121212" transform="translate(397,49)"/>
<path d="M0 0 C0 1.65 0 3.3 0 5 C-5.75 8 -5.75 8 -8 8 C-8 5.36 -8 2.72 -8 0 C-4.71023192 -1.09658936 -3.28696233 -0.79953138 0 0 Z " fill="#EAEAEA" transform="translate(329,464)"/>
<path d="M0 0 C3.36525621 0.46417327 5.40608501 1.86928411 8 4 C7.34 5.32 6.68 6.64 6 8 C2.65626525 7.44271087 -0.03312999 6.64826111 -3 5 C-1.125 1.125 -1.125 1.125 0 0 Z " fill="#EBEBEB" transform="translate(133,456)"/>
<path d="M0 0 C0.86625 0.3403125 0.86625 0.3403125 1.75 0.6875 C2.08 2.0075 2.41 3.3275 2.75 4.6875 C-2 8.6875 -2 8.6875 -4.25 8.6875 C-4.91 6.7075 -5.57 4.7275 -6.25 2.6875 C-2.80384615 -0.38942308 -2.80384615 -0.38942308 0 0 Z " fill="#EBEBEB" transform="translate(378.25,437.3125)"/>
<path d="M0 0 C2.31 0 4.62 0 7 0 C7 2.31 7 4.62 7 7 C5.68 7.33 4.36 7.66 3 8 C0 3.375 0 3.375 0 0 Z " fill="#F7F7F7" transform="translate(23,296)"/>
<path d="M0 0 C4.67692308 1.47692308 4.67692308 1.47692308 6.3125 4.125 C6.539375 4.74375 6.76625 5.3625 7 6 C4.75 6.75 4.75 6.75 2 7 C-0.3125 5.0625 -0.3125 5.0625 -2 3 C-1.34 2.01 -0.68 1.02 0 0 Z " fill="#EDEDED" transform="translate(140,447)"/>
<path d="M0 0 C4.455 0.99 4.455 0.99 9 2 C8.34 3.98 7.68 5.96 7 8 C5.8274869 7.04882866 4.66212985 6.08882991 3.5 5.125 C2.8503125 4.59132813 2.200625 4.05765625 1.53125 3.5078125 C1.0259375 3.01023437 0.520625 2.51265625 0 2 C0 1.34 0 0.68 0 0 Z " fill="#E3E3E3" transform="translate(465,332)"/>
<path d="M0 0 C0.66 0 1.32 0 2 0 C1.67 2.64 1.34 5.28 1 8 C-0.98 7.34 -2.96 6.68 -5 6 C-3.38405168 3.95880212 -1.7143618 1.95927063 0 0 Z " fill="#E5E5E5" transform="translate(165,465)"/>
<path d="M0 0 C2.76223278 2.76223278 2.57856291 5.20706617 3 9 C1.02 9 -0.96 9 -3 9 C-2.01 6.03 -1.02 3.06 0 0 Z " fill="#EBEBEB" transform="translate(227,13)"/>
<path d="M0 0 C-2.12161334 2.12161334 -3.7733159 2.92986249 -6.5 4.125 C-7.2940625 4.47820312 -8.088125 4.83140625 -8.90625 5.1953125 C-11 6 -11 6 -13 6 C-12.67 4.68 -12.34 3.36 -12 2 C-7.8803623 0.70756464 -4.33168317 -0.26252625 0 0 Z " fill="#DEDEDE" transform="translate(62,363)"/>
<path d="M0 0 C2.31 1.65 4.62 3.3 7 5 C5.625 7 5.625 7 4 9 C3.34 9 2.68 9 2 9 C1.34 6.03 0.68 3.06 0 0 Z " fill="#F0F0F0" transform="translate(88,76)"/>
<path d="M0 0 C-1.23263349 3.69790046 -2.20052451 3.9354846 -5.5625 5.6875 C-6.80193359 6.34298828 -6.80193359 6.34298828 -8.06640625 7.01171875 C-8.70449219 7.33785156 -9.34257813 7.66398437 -10 8 C-10 6.68 -10 5.36 -10 4 C-8.71086513 3.32845067 -7.41859796 2.66291141 -6.125 2 C-5.40570313 1.62875 -4.68640625 1.2575 -3.9453125 0.875 C-2 0 -2 0 0 0 Z " fill="#E7E7E7" transform="translate(83,395)"/>
<path d="M0 0 C-3.41016497 2.86453858 -6.90694544 4.34703566 -11 6 C-11.33 5.01 -11.66 4.02 -12 3 C-10.5682384 2.30062798 -9.12932968 1.61587282 -7.6875 0.9375 C-6.48673828 0.36322266 -6.48673828 0.36322266 -5.26171875 -0.22265625 C-3 -1 -3 -1 0 0 Z " fill="#DFDFDF" transform="translate(78,387)"/>
<path d="M0 0 C2.35953094 2.35953094 2.49141413 3.77895617 3 7 C1.02 7.99 1.02 7.99 -1 9 C-0.67 6.03 -0.34 3.06 0 0 Z " fill="#B4B4B4" transform="translate(337,463)"/>
</svg>
